<svg xmlns="http://www.w3.org/2000/svg" version="1.1" x="0" y="0" width="128" height="128" viewBox="0 0 128 128" enable-background="new 0 0 128 128" xml:space="preserve"><path fill="#FFFFFF" d="M63.8 0.6C28.6 0.6 0 29.2 0 64.4c0 35.2 28.6 63.8 63.8 63.8 35.2 0 63.8-28.6 63.8-63.8C127.6 29.2 99 0.6 63.8 0.6zM67.6 24.6c19.1 0.6 35.5 17.8 35.3 36.2 0 1.8 0.6 4.5-2.1 4.4 -2.6-0.1-1.9-2.8-2.2-4.6 -2.5-19.6-11.7-28.9-31.6-31.9 -1.6-0.2-4.2 0.1-4-2C63.2 23.7 66.2 24.8 67.6 24.6zM91.5 61.6c-3 0.4-2.4-2.3-2.7-4 -2-11.9-6.3-16.3-18.6-19 -1.8-0.4-4.6-0.1-4.1-2.8 0.4-2.6 3-1.7 4.9-1.5 12.3 1.4 22.3 11.9 22.2 23.3C92.9 58.9 93.8 61.2 91.5 61.6zM81.9 58.7c-1.3 0.2-2.2-0.9-2.3-2.3 -0.5-4.9-3.2-7.8-8.2-8.6 -1.5-0.2-3-0.7-2.3-2.7 0.5-1.3 1.7-1.5 3-1.5 5.4-0.1 11.8 6.3 11.7 11.8C83.9 56.9 83.7 58.5 81.9 58.7zM103.2 92.7c-2.1 5.8-9.3 11.6-15.5 11.6 -0.9-0.2-2.6-0.5-4.1-1.1C56.3 91.7 36.6 72.9 25.3 45.9c-3.8-9.1 0.2-16.7 9.6-19.8 1.7-0.6 3.4-0.6 5 0 4 1.5 14.3 15.3 14.5 19.4 0.2 3.2-2 4.9-4.2 6.3 -4.1 2.7-4.1 6.2-2.4 10.1 4 8.8 10.8 14.8 19.6 18.7 3.2 1.4 6.2 1.3 8.4-2 3.9-5.8 8.6-5.5 13.8-1.9 2.6 1.8 5.3 3.6 7.7 5.5C100.9 84.9 105.2 87.2 103.2 92.7z"/></svg>