<?xml version="1.0" encoding="utf-8"?>
<!-- Generator: Adobe Illustrator 19.2.0, SVG Export Plug-In . SVG Version: 6.00 Build 0)  -->
<svg version="1.1" id="Layer_1" xmlns="http://www.w3.org/2000/svg" xmlns:xlink="http://www.w3.org/1999/xlink" x="0px" y="0px"
	 viewBox="0 0 586.1 104.6" style="enable-background:new 0 0 586.1 104.6;" xml:space="preserve">
<style type="text/css">
	.st0{fill:#FFFFFF;}
</style>
<g>
	<g>
		<path class="st0" d="M9.2,88.8l8.4-80.3h46.2l-8.4,80.3H41.2l7.4-70.1H30.8l-7.4,70.1H9.2z"/>
		<path class="st0" d="M67.4,88.8l8.4-80.3h22.7c7.1,0,12.1,1.9,15,5.8c2.3,3,3.4,7.2,3.4,12.3c0,1.5-0.1,3-0.2,4.6
			c-0.8,7.4-3.2,12.8-7.3,16.2c-4.1,3.5-9.5,5.2-16.2,5.2h-7.6l-3.8,36.1L67.4,88.8L67.4,88.8z M86.6,42.7h4.6
			c4.2,0,7.2-0.8,8.8-2.4c1.7-1.6,2.7-4.6,3.2-9c0.2-1.8,0.3-3.4,0.3-4.8c0-1,0-1.8-0.1-2.5c-0.3-1.9-1.1-3.2-2.6-4
			c-1.5-0.8-3.8-1.2-7-1.2h-4.7L86.6,42.7z"/>
		<path class="st0" d="M139.9,89.8c-4.2,0-7.7-0.6-10.6-1.8s-5.1-3-6.6-5.3c-1.5-2.3-2.5-5.1-3-8.3c-0.3-1.6-0.4-3.4-0.4-5.3
			c0-1.8,0.1-3.7,0.3-5.8l3.1-29.7c0.9-8.6,3.3-15.1,7.4-19.5c4-4.4,10.2-6.6,18.4-6.6s13.9,2.2,17,6.6c2.4,3.4,3.6,8.1,3.6,14
			c0,1.7-0.1,3.5-0.3,5.4l-3.1,29.7c-0.9,8.6-3.4,15.1-7.5,19.7C154.2,87.5,148,89.8,139.9,89.8z M141,79.1c1.5,0,2.7-0.2,3.8-0.7
			c1.1-0.4,2-1,2.7-1.7c0.7-0.7,1.3-1.6,1.7-2.7c0.5-1.1,0.8-2.3,1.1-3.4c0.2-1.1,0.4-2.5,0.6-4.1l3.8-36.2c0.1-1.5,0.2-2.8,0.2-4
			c0-0.8,0-1.6-0.1-2.3c-0.1-1.8-0.8-3.2-2-4.3c-1.2-1-3-1.6-5.3-1.6c-1.8,0-3.3,0.3-4.6,0.8c-1.2,0.6-2.2,1.4-2.9,2.6
			s-1.2,2.5-1.6,3.8c-0.3,1.3-0.6,3-0.8,4.9l-3.8,36.2c-0.1,1.6-0.2,3-0.2,4.3c0,0.7,0,1.4,0,2.1c0.1,1.9,0.8,3.4,2,4.5
			C136.9,78.6,138.6,79.1,141,79.1z"/>
		<path class="st0" d="M173.9,88.8l8.4-80.3h19.6c3.7,0,6.9,0.3,9.6,1c2.7,0.7,5,1.8,6.9,3.3c2,1.5,3.4,3.6,4.2,6.3
			c0.5,1.8,0.8,3.8,0.8,6c0,1.2-0.1,2.5-0.2,3.8c-1.1,10-5.6,15.6-13.6,16.7c4.6,1,7.9,3.1,9.9,6.3c1.5,2.5,2.3,5.7,2.3,9.7
			c0,1.2-0.1,2.5-0.2,3.9c-0.7,7.6-3.2,13.3-7.5,17.3c-4.2,4-10,6-17.3,6L173.9,88.8L173.9,88.8z M189.3,78.7h5.5
			c3,0,5.5-0.5,7.3-1.5c1.8-1,3.1-2.4,4-4.2c0.9-1.9,1.5-4.4,1.8-7.5c0.1-1.1,0.1-2.1,0.1-3.1c0-3.3-0.6-5.8-1.9-7.6
			c-1.7-2.2-4.8-3.3-9.3-3.3h-4.7L189.3,78.7z M193.2,41.4h4.6c4.4,0,7.5-0.9,9.3-2.8c1.8-1.9,3-5,3.4-9.4c0.1-0.9,0.1-1.7,0.1-2.4
			c0-1.3-0.1-2.3-0.4-3.2c-0.4-1.4-1.2-2.5-2.4-3.2c-1.2-0.7-2.6-1.2-4.1-1.4c-1.5-0.2-3.6-0.3-6.2-0.3h-2L193.2,41.4z"/>
		<path class="st0" d="M250.1,89.8c-4.2,0-7.7-0.6-10.6-1.8s-5.1-3-6.6-5.3c-1.5-2.3-2.5-5.1-3-8.3c-0.3-1.6-0.4-3.4-0.4-5.3
			c0-1.8,0.1-3.7,0.3-5.8l3.1-29.7c0.9-8.6,3.3-15.1,7.4-19.5c4-4.4,10.2-6.6,18.4-6.6s13.9,2.2,17,6.6c2.4,3.4,3.6,8.1,3.6,14
			c0,1.7-0.1,3.5-0.3,5.4l-3.1,29.7c-0.9,8.6-3.4,15.1-7.5,19.7C264.4,87.5,258.3,89.8,250.1,89.8z M251.2,79.1
			c1.5,0,2.7-0.2,3.8-0.7c1.1-0.4,2-1,2.7-1.7c0.7-0.7,1.3-1.6,1.7-2.7c0.5-1.1,0.8-2.3,1.1-3.4c0.2-1.1,0.4-2.5,0.6-4.1l3.8-36.2
			c0.1-1.5,0.2-2.8,0.2-4c0-0.8,0-1.6-0.1-2.3c-0.1-1.8-0.8-3.2-2-4.3c-1.2-1-3-1.6-5.3-1.6c-1.8,0-3.3,0.3-4.6,0.8
			c-1.2,0.6-2.2,1.4-2.9,2.6s-1.2,2.5-1.6,3.8c-0.3,1.3-0.6,3-0.8,4.9l-3.8,36.2c-0.1,1.6-0.2,3-0.2,4.3c0,0.7,0,1.4,0,2.1
			c0.1,1.9,0.8,3.4,2,4.5C247.1,78.6,248.9,79.1,251.2,79.1z"/>
		<path class="st0" d="M284.2,88.8l8.4-80.3h14.3l-3.5,34h3l16.6-34h14.2l-19,37.9l12,42.4h-14.5l-10.2-37.6h-3l-4,37.6H284.2z"/>
		<path class="st0" d="M333.1,88.8l24.8-80.3h14.8l8,80.3h-13.4L366,70h-14.1l-5.3,18.8H333.1z M354.4,60.6h11l-2-33.2L354.4,60.6z"
			/>
		<path class="st0" d="M432.6,104.6l0.1-15.8h-44.1l8.4-80.3h14.3L404,78.9h18.6L430,8.5h14.3L437,78.9h9.1l-2.7,25.7
			C443.4,104.6,432.6,104.6,432.6,104.6z"/>
		<path class="st0" d="M453.4,88.8l8.4-80.3h12l-5.3,50.6l27.2-50.6h9.8l-8.4,80.3H485l5.4-51.6L463,88.8H453.4z"/>
		<path class="st0" d="M504.3,88.8l20-35.9c-3.2-1.8-5.6-4.5-7.3-8.2c-1.2-2.7-1.8-5.9-1.8-9.5c0-1.2,0.1-2.5,0.2-3.8
			c0.8-7.7,3.5-13.5,8.2-17.2c4.6-3.8,11.5-5.7,20.6-5.7H562l-8.4,80.3h-14.3l3.4-32.6h-4.5h-1.8L520,88.8L504.3,88.8L504.3,88.8z
			 M541.1,46.1h2.7l2.9-27.6h-3c-4.6,0-8.1,1-10.5,3.1c-2.5,2.1-3.9,5.3-4.4,9.8c-0.1,1.1-0.1,2.1-0.1,3.1c0,3.4,0.7,6.1,2.1,7.9
			C532.7,44.9,536.1,46.1,541.1,46.1z"/>
		<path class="st0" d="M564.4,88.8l1.4-12.9h12.9l-1.4,12.9H564.4z M570.5,70.4l2.4-61.8h13.2l-11,61.8H570.5z"/>
	</g>
</g>
</svg>
